{
    "asset" : {
        "generator" : "Khronos glTF Blender I/O v3.2.43",
        "version" : "2.0"
    },
    "scene" : 0,
    "scenes" : [
        {
            "name" : "Scene",
            "nodes" : [
                0
            ]
        }
    ],
    "nodes" : [
        {
            "mesh" : 0,
            "name" : "Cube",
            "scale" : [
                1.7867330312728882,
                1.7867330312728882,
                1.8098071813583374
            ],
            "translation" : [
                0,
                0,
                1.4069567918777466
            ]
        }
    ],
    "materials" : [
        {
            "doubleSided" : true,
            "name" : "Heart.001",
            "pbrMetallicRoughness" : {
                "baseColorFactor" : [
                    0.13593442738056183,
                    0.42744502425193787,
                    0.08798930048942566,
                    1
                ],
                "metallicFactor" : 0,
                "roughnessFactor" : 0.6247619390487671
            }
        }
    ],
    "meshes" : [
        {
            "name" : "Cube.001",
            "primitives" : [
                {
                    "attributes" : {
                        "POSITION" : 0,
                        "NORMAL" : 1,
                        "TEXCOORD_0" : 2
                    },
                    "indices" : 3,
                    "material" : 0
                }
            ]
        }
    ],
    "accessors" : [
        {
            "bufferView" : 0,
            "componentType" : 5126,
            "count" : 13134,
            "max" : [
                0.595832109451294,
                0.30471742153167725,
                0.5571028590202332
            ],
            "min" : [
                -0.5921965837478638,
                -0.30471742153167725,
                -0.5205631852149963
            ],
            "type" : "VEC3"
        },
        {
            "bufferView" : 1,
            "componentType" : 5126,
            "count" : 13134,
            "type" : "VEC3"
        },
        {
            "bufferView" : 2,
            "componentType" : 5126,
            "count" : 13134,
            "type" : "VEC2"
        },
        {
            "bufferView" : 3,
            "componentType" : 5123,
            "count" : 73152,
            "type" : "SCALAR"
        }
    ],
    "bufferViews" : [
        {
            "buffer" : 0,
            "byteLength" : 157608,
            "byteOffset" : 0
        },
        {
            "buffer" : 0,
            "byteLength" : 157608,
            "byteOffset" : 157608
        },
        {
            "buffer" : 0,
            "byteLength" : 105072,
            "byteOffset" : 315216
        },
        {
            "buffer" : 0,
            "byteLength" : 146304,
            "byteOffset" : 420288
        }
    ],
    "buffers" : [
        {
            "byteLength" : 566592,
            "uri" : "data:application/octet-stream;base64,"
        }
    ]
}
